<svg height="32px" viewBox="0 0 32 32" width="32px" xml:space="preserve" xmlns="http://www.w3.org/2000/svg" xmlns:xlink="http://www.w3.org/1999/xlink">
<g id="tag" fill="red">
<path clip-rule="evenodd" d="M31.391,13.883l-5-8c-0.73-1.169-2.012-1.88-3.391-1.88H4   c-2.209,0-4,1.791-4,4v16c0,2.209,1.791,4,4,4h19c1.379,0,2.66-0.711,3.391-1.881l5-8C32.203,16.827,32.203,15.18,31.391,13.883z    M29.695,17.062l-5,8.002c-0.367,0.588-1.002,0.939-1.695,0.939H4c-1.103,0-2-0.898-2-2v-16c0-1.103,0.897-2,2-2h19   c0.693,0,1.328,0.352,1.695,0.939l5,8C30.098,15.587,30.098,16.419,29.695,17.062z" fill="red" fill-rule="nonzero"/>
</g>
</svg>